<svg xmlns="http://www.w3.org/2000/svg" width="200" height="235" viewBox="0 0 200 235">
    <g fill="none" fill-rule="evenodd">
        <path stroke="#BAC5D1" stroke-dasharray="3.4" stroke-width=".85" d="M91.482 206.26l8.684-6.069c10.004-6.992 12.445-20.77 5.453-30.774a22.1 22.1 0 0 0-5.983-5.813l-87.417-57.403C.677 98.622-2.535 83.122 5.044 71.58a25 25 0 0 1 7.101-7.127l73.467-48.612a21.25 21.25 0 0 1 23.132-.208l18.155 11.55"/>
        <path fill="#DADFE3" d="M167.985 109.185c-3.883-.886-9.5-2.723-16.852-5.51-11.027-4.18-51.333-22.848-36.352-35.778 14.982-12.93 28.82 13.856 39.42 13.856 10.6 0 16.072 18.127 16.072 21.271l-2.288 6.161z" opacity=".175"/>
        <path fill="#DAE6F3" d="M164.491 63.064l-5.12-2.95c9.516-5.45 17.223-18.66 17.191-29.507-.014-5.433-1.961-9.249-5.098-11.007l9.701 5.59c3.135 1.76 5.083 5.573 5.099 11.009.03 10.844-7.678 24.057-17.193 29.504l-4.58-2.639 4.58 2.639c-4.791 2.745-9.134 3.001-12.269 1.193l-9.7-5.591c3.133 1.808 7.478 1.552 12.268-1.191l5.121 2.95z"/>
        <path fill="#FFF" d="M169.07 65.703c9.516-5.447 17.224-18.66 17.194-29.504-.016-5.436-1.964-9.25-5.099-11.01-3.137-1.757-7.447-1.494-12.207 1.23-9.515 5.45-17.211 18.667-17.18 29.526.03 10.844 7.778 15.208 17.293 9.758m30.285-37.587c-.057 33.162-27.877 76.317-30.756 80.889-.127.229-.226.373-.251.43-.692-.293-29.67-12.316-29.667-46.966.058-19.291 13.572-42.532 30.23-52.115 17-9.633 30.502-1.616 30.444 17.762z"/>
        <path fill="#DAE6F3" d="M163.037 6.906l-3.722-2.145c8.45-4.79 16.035-5.217 21.519-2.053l9.702 5.591c-5.486-3.163-13.072-2.736-21.522 2.053l-5.977-3.446 5.977 3.445c-16.658 9.583-30.172 32.824-30.23 52.117-.002 27.34 18.41 40.962 26.52 45.634l-9.7-5.591c-8.11-4.672-26.521-18.294-26.521-45.634.06-19.293 13.571-42.534 30.23-52.117l3.724 2.146z"/>
        <g>
            <path fill="#DADFE3" d="M44.363 219.85L70.917 235l27.446-16.812-26.602-14.629z" opacity=".249"/>
            <path fill="#DAE6F3" d="M69.192 220.845v2.01l8.238-4.776v-2.01z"/>
            <path fill="#C1CEDC" d="M62.827 219.184l6.365 3.671v-2.01l-6.365-3.671z"/>
            <path fill="#F1F6FB" d="M77.43 216.07l-8.239 4.775-6.365-3.671 8.24-4.776z"/>
            <path fill="#DAE6F3" d="M72.475 62.71v153.604l.755-.441V62.268z"/>
            <path fill="#C1CEDC" d="M72.475 62.71l-1.411-.817v153.605l1.411.816z"/>
            <path fill="#DAE6F3" d="M73.23 62.268l-.755.442-1.411-.816.755-.443z"/>
            <path fill="#F1F6FB" d="M72.013 216.048V62.444l-3.35 1.941V217.99z"/>
            <path fill="#DAE6F3" d="M72.013 62.443l-3.35 1.942-.48-.291 3.35-1.94z"/>
            <path fill="#A2B3AF" d="M68.183 217.7l.481.29V64.384l-.481-.29z"/>
            <path fill="#DAE6F3" d="M68.364 65.075V218.68l.755-.441V64.634z"/>
            <path fill="#C1CEDC" d="M68.364 65.075l-1.412-.816v153.605l1.412.816z"/>
            <path fill="#DAE6F3" d="M69.119 64.634l-.755.441-1.412-.817.755-.441z"/>
            <path fill="#C1CEDC" d="M71.071 214.57c-.053.574-.414 1.175-.815 1.349-.254.106-.468 0-.575-.241-.067-.134-.08-.307-.067-.507.04-.574.402-1.175.816-1.336a.484.484 0 0 1 .133-.026c.335-.067.548.253.508.76"/>
            <path fill="#FFF" d="M70.643 214.316c-.053.574-.414 1.175-.815 1.336-.054.013-.107.026-.148.026-.066-.133-.08-.307-.066-.507.04-.575.402-1.176.816-1.336a.484.484 0 0 1 .133-.027.997.997 0 0 1 .08.508"/>
            <path fill="#C1CEDC" d="M71.071 207.45c-.049.576-.413 1.178-.815 1.349-.254.108-.468 0-.575-.24-.067-.134-.08-.308-.067-.508.04-.574.402-1.175.816-1.335a.484.484 0 0 1 .133-.027c.335-.067.552.254.508.761"/>
            <path fill="#FFF" d="M70.643 207.196c-.045.576-.414 1.176-.815 1.336-.054.013-.107.026-.148.026-.066-.133-.08-.307-.066-.507.04-.574.402-1.174.816-1.335a.45.45 0 0 1 .133-.026.972.972 0 0 1 .08.506"/>
            <path fill="#C1CEDC" d="M71.071 200.331c-.049.574-.413 1.177-.815 1.349-.254.108-.468 0-.575-.24-.067-.135-.08-.308-.067-.508.04-.574.402-1.175.816-1.336a.484.484 0 0 1 .133-.026c.335-.067.552.254.508.761"/>
            <path fill="#FFF" d="M70.643 200.077c-.045.576-.414 1.176-.815 1.336-.054.013-.107.026-.148.026-.066-.133-.08-.307-.066-.507.04-.574.402-1.176.816-1.335a.452.452 0 0 1 .133-.028.976.976 0 0 1 .08.508"/>
            <path fill="#C1CEDC" d="M71.071 193.212c-.049.575-.413 1.177-.815 1.348-.254.108-.468 0-.575-.24-.067-.133-.08-.307-.067-.507.04-.575.402-1.176.816-1.336a.484.484 0 0 1 .133-.027c.335-.066.552.255.508.762"/>
            <path fill="#FFF" d="M70.643 192.958c-.045.575-.414 1.175-.815 1.335-.054.013-.107.026-.148.026-.066-.133-.08-.307-.066-.507.04-.574.402-1.175.816-1.335a.45.45 0 0 1 .133-.026.972.972 0 0 1 .08.507"/>
            <path fill="#C1CEDC" d="M71.071 186.092c-.049.575-.413 1.178-.815 1.349-.254.108-.468 0-.575-.24-.067-.134-.08-.308-.067-.509.04-.573.402-1.174.816-1.334a.484.484 0 0 1 .133-.027c.335-.066.552.254.508.761"/>
            <path fill="#FFF" d="M70.643 185.839c-.045.575-.414 1.175-.815 1.335-.054.013-.107.026-.148.026-.066-.133-.08-.307-.066-.507.04-.574.402-1.175.816-1.335a.452.452 0 0 1 .133-.027.976.976 0 0 1 .08.508"/>
            <path fill="#C1CEDC" d="M71.071 178.973c-.049.574-.413 1.177-.815 1.348-.254.108-.468 0-.575-.24-.067-.134-.08-.307-.067-.507.04-.574.402-1.175.816-1.336a.484.484 0 0 1 .133-.027c.335-.066.552.255.508.762"/>
            <path fill="#FFF" d="M70.643 178.719c-.045.575-.414 1.175-.815 1.336-.054.013-.107.025-.148.025-.066-.132-.08-.307-.066-.507.04-.574.402-1.175.816-1.334a.45.45 0 0 1 .133-.027.972.972 0 0 1 .08.507"/>
            <path fill="#C1CEDC" d="M71.071 171.853c-.049.576-.413 1.178-.815 1.349-.254.109-.468 0-.575-.24-.067-.133-.08-.307-.067-.508.04-.574.402-1.175.816-1.335a.484.484 0 0 1 .133-.027c.335-.067.552.254.508.761"/>
            <path fill="#FFF" d="M70.643 171.6c-.045.575-.414 1.175-.815 1.336-.054.012-.107.025-.148.025-.066-.132-.08-.307-.066-.507.04-.574.402-1.175.816-1.335a.484.484 0 0 1 .133-.027.976.976 0 0 1 .08.508"/>
            <path fill="#C1CEDC" d="M71.071 164.734c-.049.574-.413 1.177-.815 1.349-.254.108-.468 0-.575-.241-.067-.134-.08-.307-.067-.507.04-.574.402-1.175.816-1.336a.484.484 0 0 1 .133-.026c.335-.067.552.254.508.761"/>
            <path fill="#FFF" d="M70.643 164.48c-.045.576-.414 1.176-.815 1.336-.054.013-.107.026-.148.026-.066-.133-.08-.307-.066-.507.04-.575.402-1.175.816-1.335a.45.45 0 0 1 .133-.027.972.972 0 0 1 .08.507"/>
            <path fill="#C1CEDC" d="M71.071 157.614c-.049.576-.413 1.178-.815 1.35-.254.108-.468 0-.575-.24-.067-.134-.08-.308-.067-.509.04-.574.402-1.175.816-1.335a.484.484 0 0 1 .133-.027c.335-.066.552.255.508.761"/>
            <path fill="#FFF" d="M70.643 157.361c-.045.575-.414 1.175-.815 1.336-.054.013-.107.026-.148.026-.066-.133-.08-.307-.066-.507.04-.575.402-1.176.816-1.336a.484.484 0 0 1 .133-.027.976.976 0 0 1 .08.508"/>
            <path fill="#C1CEDC" d="M71.071 150.495c-.049.575-.413 1.178-.815 1.349-.254.108-.468 0-.575-.24-.067-.134-.08-.308-.067-.508.04-.574.402-1.175.816-1.335a.484.484 0 0 1 .133-.027c.335-.066.552.254.508.761"/>
            <path fill="#FFF" d="M70.643 150.242c-.045.575-.414 1.175-.815 1.335-.054.013-.107.026-.148.026-.066-.133-.08-.307-.066-.507.04-.574.402-1.175.816-1.335a.45.45 0 0 1 .133-.026.972.972 0 0 1 .08.507"/>
            <path fill="#C1CEDC" d="M71.071 143.376c-.049.575-.413 1.177-.815 1.348-.254.11-.468 0-.575-.24-.067-.133-.08-.306-.067-.507.04-.575.402-1.176.816-1.336a.484.484 0 0 1 .133-.027c.335-.066.552.255.508.762"/>
            <path fill="#FFF" d="M70.643 143.122c-.045.576-.414 1.176-.815 1.336-.054.013-.107.026-.148.026-.066-.133-.08-.307-.066-.507.04-.574.402-1.175.816-1.336a.484.484 0 0 1 .133-.027.976.976 0 0 1 .08.508"/>
            <path fill="#C1CEDC" d="M71.071 136.257c-.049.574-.413 1.177-.815 1.348-.254.108-.468 0-.575-.24-.067-.134-.08-.307-.067-.507.04-.575.402-1.176.816-1.336a.484.484 0 0 1 .133-.027c.335-.066.552.255.508.762"/>
            <path fill="#FFF" d="M70.643 136.003c-.045.575-.414 1.175-.815 1.335-.054.013-.107.026-.148.026-.066-.132-.08-.307-.066-.507.04-.574.402-1.175.816-1.334a.45.45 0 0 1 .133-.027.972.972 0 0 1 .08.507"/>
            <path fill="#C1CEDC" d="M71.071 129.137c-.049.575-.413 1.177-.815 1.349-.254.108-.468 0-.575-.24-.067-.134-.08-.307-.067-.508.04-.574.402-1.175.816-1.335a.452.452 0 0 1 .133-.028c.335-.066.552.255.508.762"/>
            <path fill="#FFF" d="M70.643 128.884c-.045.575-.414 1.175-.815 1.335-.054.013-.107.026-.148.026-.066-.133-.08-.307-.066-.507.04-.574.402-1.175.816-1.335a.452.452 0 0 1 .133-.027.976.976 0 0 1 .08.508"/>
            <path fill="#C1CEDC" d="M71.071 122.018c-.049.574-.413 1.177-.815 1.348-.254.108-.468 0-.575-.24-.067-.134-.08-.307-.067-.507.04-.574.402-1.175.816-1.336a.484.484 0 0 1 .133-.027c.335-.066.552.255.508.762"/>
            <path fill="#FFF" d="M70.643 121.764c-.045.575-.414 1.175-.815 1.336-.054.013-.107.025-.148.025-.066-.132-.08-.307-.066-.507.04-.574.402-1.175.816-1.334a.45.45 0 0 1 .133-.027.972.972 0 0 1 .08.507"/>
            <path fill="#A2B3AF" d="M71.071 114.898c-.049.576-.413 1.178-.815 1.349-.254.109-.468 0-.575-.24-.067-.133-.08-.307-.067-.508.04-.574.402-1.175.816-1.335a.484.484 0 0 1 .133-.027c.335-.067.552.254.508.761"/>
            <path fill="#FFF" d="M70.643 114.645c-.045.575-.414 1.175-.815 1.336-.054.012-.107.025-.148.025-.066-.132-.08-.307-.066-.507.04-.574.402-1.175.816-1.335a.484.484 0 0 1 .133-.027.976.976 0 0 1 .08.508"/>
            <path fill="#A2B3AF" d="M71.071 107.78c-.049.573-.413 1.176-.815 1.348-.254.108-.468 0-.575-.241-.067-.134-.08-.307-.067-.507.04-.574.402-1.175.816-1.336a.484.484 0 0 1 .133-.026c.335-.067.552.254.508.761"/>
            <path fill="#FFF" d="M70.643 107.525c-.045.576-.414 1.176-.815 1.336-.054.013-.107.026-.148.026-.066-.133-.08-.307-.066-.507.04-.574.402-1.176.816-1.335a.45.45 0 0 1 .133-.027.972.972 0 0 1 .08.507"/>
            <path fill="#A2B3AF" d="M71.071 100.66c-.049.575-.413 1.177-.815 1.348-.254.109-.468 0-.575-.24-.067-.133-.08-.306-.067-.507.04-.575.402-1.176.816-1.336a.484.484 0 0 1 .133-.027c.335-.066.552.255.508.761"/>
            <path fill="#FFF" d="M70.643 100.406c-.045.575-.414 1.175-.815 1.336-.054.013-.107.026-.148.026-.066-.133-.08-.307-.066-.507.04-.575.402-1.176.816-1.336a.484.484 0 0 1 .133-.027.976.976 0 0 1 .08.508"/>
            <path fill="#A2B3AF" d="M71.071 93.54c-.049.575-.413 1.178-.815 1.349-.254.108-.468 0-.575-.24-.067-.134-.08-.308-.067-.508.04-.574.402-1.175.816-1.335a.484.484 0 0 1 .133-.027c.335-.066.552.254.508.761"/>
            <path fill="#FFF" d="M70.643 93.287c-.045.575-.414 1.175-.815 1.335a.71.71 0 0 1-.148.026c-.066-.133-.08-.307-.066-.507.04-.574.402-1.175.816-1.335a.45.45 0 0 1 .133-.026.972.972 0 0 1 .08.507"/>
            <path fill="#A2B3AF" d="M71.071 86.42c-.049.576-.413 1.178-.815 1.35-.254.108-.468 0-.575-.24-.067-.134-.08-.307-.067-.508.04-.575.402-1.176.816-1.336a.484.484 0 0 1 .133-.027c.335-.066.552.255.508.762"/>
            <path fill="#FFF" d="M70.643 86.167c-.045.575-.414 1.175-.815 1.336-.054.013-.107.026-.148.026-.066-.133-.08-.307-.066-.508.04-.574.402-1.174.816-1.334a.45.45 0 0 1 .133-.027.972.972 0 0 1 .08.507"/>
            <path fill="#A2B3AF" d="M71.071 79.302c-.049.574-.413 1.177-.815 1.348-.254.108-.468 0-.575-.24-.067-.134-.08-.307-.067-.507.04-.575.402-1.176.816-1.336a.484.484 0 0 1 .133-.027c.335-.066.552.255.508.762"/>
            <path fill="#FFF" d="M70.643 79.048c-.045.575-.414 1.175-.815 1.335a.71.71 0 0 1-.148.026c-.066-.132-.08-.307-.066-.507.04-.574.402-1.175.816-1.334a.45.45 0 0 1 .133-.027.972.972 0 0 1 .08.507"/>
            <path fill="#A2B3AF" d="M71.071 72.182c-.049.575-.413 1.177-.815 1.349-.254.109-.468 0-.575-.24-.067-.134-.08-.307-.067-.508.04-.574.402-1.175.816-1.336a.484.484 0 0 1 .133-.026c.335-.067.552.254.508.761"/>
            <path fill="#FFF" d="M70.643 71.928c-.045.575-.414 1.175-.815 1.336-.054.013-.107.027-.148.027-.066-.134-.08-.307-.066-.508.04-.575.402-1.175.816-1.335a.45.45 0 0 1 .133-.027.972.972 0 0 1 .08.507"/>
            <path fill="#C1CEDC" d="M71.071 65.063c-.053.574-.414 1.175-.815 1.348-.254.107-.468 0-.575-.24-.067-.134-.08-.307-.067-.507.04-.574.402-1.175.816-1.336a.484.484 0 0 1 .133-.027c.335-.066.548.254.508.762"/>
            <path fill="#FFF" d="M70.643 64.81c-.053.573-.414 1.174-.815 1.335-.054.013-.107.026-.148.026-.066-.133-.08-.307-.066-.507.04-.575.402-1.176.816-1.335a.45.45 0 0 1 .133-.027.993.993 0 0 1 .08.507"/>
            <path fill="#C1CEDC" d="M90.468 103.74V62.232c0-2.493-2.704-4.05-4.864-2.8L57.288 75.81a7.069 7.069 0 0 0-3.533 6.12v42.19c0 2.396 2.595 3.893 4.672 2.697l28.034-16.147a7.995 7.995 0 0 0 4.007-6.928"/>
            <path fill="#F4FAFC" d="M91.196 104.368V62.86c0-2.494-2.704-4.05-4.863-2.801L58.016 76.437a7.07 7.07 0 0 0-3.533 6.12v42.19c0 2.396 2.595 3.894 4.673 2.697l28.032-16.147a7.997 7.997 0 0 0 4.008-6.929"/>
            <path fill="#DF1A1E" d="M59.13 78.357a4.85 4.85 0 0 0-2.424 4.2v41.63c0 .92.996 1.495 1.795 1.036l27.281-15.679a6.386 6.386 0 0 0 3.191-5.518V63.178c0-.92-.998-1.496-1.797-1.034L59.131 78.357z"/>
            <path fill="#FFF" d="M62.271 93.984v7.567a1.44 1.44 0 0 0 2.175 1.238l19.06-11.305c.437-.259.705-.73.705-1.238v-7.08a1.44 1.44 0 0 0-2.151-1.253L63 92.732a1.44 1.44 0 0 0-.729 1.252z"/>
        </g>
    </g>
</svg>
