<svg xmlns="http://www.w3.org/2000/svg" width="131" height="150" viewBox="0 0 131 150">
    <g fill="none" fill-rule="evenodd">
        <path stroke="#BAC5D1" stroke-dasharray="2.4" stroke-width=".6" d="M13.834 114.7l-8.517-5.797C.347 105.52-.939 98.748 2.444 93.778a10.886 10.886 0 0 1 3.176-3.072l53.989-34.18a13.2 13.2 0 0 1 14.277.1l11.366 7.421"/>
        <path fill="#DAE6F3" d="M81.973 100.06c-1.31.213-2.244-.717-2.242-2.457l.03-33.405c.002-2.221 1.526-4.92 3.4-6.032l37.763-22.35c1.01-.598 1.918-.613 2.541-.153l6.212 3.598-5.344 3.836.037 28.146c.003 2.22-1.517 4.918-3.393 6.026L86.35 97.712l.349 5.144-4.727-2.797z"/>
        <path fill="#DAE6F3" d="M102.055 107.296V92.209l-6.374-3.744v15.086z"/>
        <path fill="#F1F6FB" d="M114.012 88.89l-11.957 18.406.014-11.335-12.555 7.434c-1.876 1.11-3.396.212-3.396-2.008v-33.39c0-2.22 1.52-4.921 3.394-6.034l37.812-22.43c1.875-1.113 3.396-.214 3.396 2.006v33.438c0 2.22-1.52 4.92-3.396 6.031l-13.312 7.882z"/>
        <path fill="#0A294C" d="M117.8 70.538c-1.315-.073-2.302-1.742-2.202-3.73.099-1.986 1.48-3.538 2.796-3.466 1.316.073 2.068 1.742 1.97 3.73-.1 1.986-1.247 3.538-2.563 3.466zM109.833 74.538c-1.317-.073-2.303-1.742-2.204-3.73.099-1.986 1.247-3.538 2.563-3.466 1.317.073 2.303 1.742 2.204 3.73-.099 1.986-1.247 3.538-2.563 3.466zM101.863 78.538c-1.316-.073-2.302-1.742-2.203-3.73.1-1.986 1.544-3.538 2.86-3.466 1.316.073 2.004 1.742 1.905 3.73-.1 1.986-1.246 3.538-2.562 3.466z"/>
        <path fill="#DADFE3" d="M8.731 134.19l26.554 15.15 27.446-16.812-26.602-14.629z" opacity=".249"/>
        <path fill="#DAE6F3" d="M33.56 135.185v2.01l8.237-4.776v-2.01z"/>
        <path fill="#C1CEDC" d="M27.195 133.524l6.365 3.671v-2.01l-6.365-3.671z"/>
        <path fill="#F1F6FB" d="M41.799 130.41l-8.24 4.775-6.365-3.671 8.24-4.776z"/>
        <path fill="#DAE6F3" d="M36.843 12.01v118.66l.756-.342V11.67z"/>
        <path fill="#C1CEDC" d="M36.843 12.007l-1.411-.635v119.366l1.411.634z"/>
        <path fill="#DAE6F3" d="M37.599 11.67l-.756.35-1.411-.648.755-.352z"/>
        <path fill="#F1F6FB" d="M36.38 130.522V12.02l-3.348 1.498V132.02z"/>
        <path fill="#DAE6F3" d="M36.38 12.02l-3.348 1.823-.482-.26 3.35-1.74zM32.732 14.013V133.67l.755-.344V13.67z"/>
        <path fill="#C1CEDC" d="M32.732 14.02l-1.412-.635v119.366l1.412.634z"/>
        <path fill="#DAE6F3" d="M33.487 13.67l-.755.35-1.412-.649.755-.35z"/>
        <path fill="#C1CEDC" d="M35.44 128.91c-.054.574-.415 1.175-.816 1.349-.254.106-.468 0-.575-.241-.067-.134-.08-.307-.067-.507.04-.574.402-1.175.816-1.336a.484.484 0 0 1 .133-.026c.334-.067.548.253.508.761"/>
        <path fill="#FFF" d="M35.011 128.656c-.053.574-.414 1.175-.815 1.336a.71.71 0 0 1-.148.026c-.066-.133-.08-.307-.066-.507.04-.575.402-1.176.816-1.336a.484.484 0 0 1 .133-.027.997.997 0 0 1 .08.508"/>
        <path fill="#C1CEDC" d="M35.44 121.79c-.05.576-.414 1.178-.816 1.349-.254.108-.468 0-.575-.24-.067-.134-.08-.308-.067-.508.04-.574.402-1.175.816-1.335a.484.484 0 0 1 .133-.027c.334-.066.552.254.508.761"/>
        <path fill="#FFF" d="M35.011 121.537c-.045.575-.414 1.175-.815 1.335a.71.71 0 0 1-.148.026c-.066-.133-.08-.307-.066-.507.04-.574.402-1.174.816-1.335a.45.45 0 0 1 .133-.026.972.972 0 0 1 .08.507"/>
        <path fill="#C1CEDC" d="M35.44 114.671c-.05.574-.414 1.177-.816 1.349-.254.108-.468 0-.575-.24-.067-.134-.08-.308-.067-.508.04-.574.402-1.175.816-1.335a.484.484 0 0 1 .133-.027c.334-.067.552.254.508.761"/>
        <path fill="#FFF" d="M35.011 114.417c-.045.576-.414 1.176-.815 1.336a.71.71 0 0 1-.148.026c-.066-.133-.08-.307-.066-.507.04-.574.402-1.175.816-1.335a.452.452 0 0 1 .133-.028.976.976 0 0 1 .08.508"/>
        <path fill="#C1CEDC" d="M35.44 107.552c-.05.575-.414 1.177-.816 1.348-.254.108-.468 0-.575-.24-.067-.133-.08-.307-.067-.507.04-.575.402-1.176.816-1.336a.484.484 0 0 1 .133-.027c.334-.066.552.255.508.762"/>
        <path fill="#FFF" d="M35.011 107.298c-.045.575-.414 1.175-.815 1.335a.71.71 0 0 1-.148.026c-.066-.132-.08-.307-.066-.507.04-.574.402-1.175.816-1.334a.45.45 0 0 1 .133-.027.972.972 0 0 1 .08.507"/>
        <path fill="#C1CEDC" d="M35.44 100.432c-.05.575-.414 1.178-.816 1.349-.254.108-.468 0-.575-.24-.067-.134-.08-.308-.067-.509.04-.573.402-1.174.816-1.334a.484.484 0 0 1 .133-.027c.334-.066.552.254.508.761"/>
        <path fill="#FFF" d="M35.011 100.179c-.045.575-.414 1.175-.815 1.335a.71.71 0 0 1-.148.026c-.066-.133-.08-.307-.066-.507.04-.574.402-1.175.816-1.335a.452.452 0 0 1 .133-.027.976.976 0 0 1 .08.508"/>
        <path fill="#C1CEDC" d="M35.44 93.313c-.05.574-.414 1.177-.816 1.348-.254.108-.468 0-.575-.24-.067-.134-.08-.307-.067-.507.04-.574.402-1.175.816-1.336a.484.484 0 0 1 .133-.027c.334-.066.552.255.508.762"/>
        <path fill="#FFF" d="M35.011 93.059c-.045.575-.414 1.175-.815 1.336a.71.71 0 0 1-.148.025c-.066-.132-.08-.307-.066-.507.04-.574.402-1.175.816-1.334a.45.45 0 0 1 .133-.027.972.972 0 0 1 .08.507"/>
        <path fill="#C1CEDC" d="M35.44 86.193c-.05.576-.414 1.178-.816 1.349-.254.109-.468 0-.575-.24-.067-.133-.08-.307-.067-.508.04-.574.402-1.175.816-1.335a.484.484 0 0 1 .133-.027c.334-.067.552.254.508.761"/>
        <path fill="#FFF" d="M35.011 85.94c-.045.575-.414 1.175-.815 1.336-.054.012-.107.025-.148.025-.066-.132-.08-.307-.066-.507.04-.574.402-1.175.816-1.335a.484.484 0 0 1 .133-.027.976.976 0 0 1 .08.508"/>
        <path fill="#C1CEDC" d="M35.44 79.074c-.05.574-.414 1.177-.816 1.349-.254.108-.468 0-.575-.24-.067-.135-.08-.308-.067-.508.04-.574.402-1.175.816-1.336a.484.484 0 0 1 .133-.026c.334-.067.552.254.508.761"/>
        <path fill="#FFF" d="M35.011 78.82c-.045.576-.414 1.176-.815 1.336a.71.71 0 0 1-.148.026c-.066-.133-.08-.307-.066-.507.04-.574.402-1.175.816-1.335a.45.45 0 0 1 .133-.027.972.972 0 0 1 .08.507"/>
        <path fill="#C1CEDC" d="M35.44 71.954c-.05.576-.414 1.178-.816 1.35-.254.108-.468 0-.575-.24-.067-.134-.08-.307-.067-.508.04-.575.402-1.176.816-1.336a.484.484 0 0 1 .133-.027c.334-.066.552.255.508.761"/>
        <path fill="#FFF" d="M35.011 71.701c-.045.575-.414 1.175-.815 1.336a.71.71 0 0 1-.148.026c-.066-.133-.08-.307-.066-.507.04-.575.402-1.176.816-1.336a.484.484 0 0 1 .133-.027.976.976 0 0 1 .08.508"/>
        <path fill="#C1CEDC" d="M35.44 64.835c-.05.575-.414 1.178-.816 1.349-.254.108-.468 0-.575-.24-.067-.134-.08-.308-.067-.508.04-.574.402-1.175.816-1.335a.484.484 0 0 1 .133-.027c.334-.066.552.254.508.761"/>
        <path fill="#FFF" d="M35.011 64.582c-.045.575-.414 1.175-.815 1.335a.71.71 0 0 1-.148.026c-.066-.133-.08-.307-.066-.507.04-.574.402-1.175.816-1.335a.45.45 0 0 1 .133-.026.972.972 0 0 1 .08.507"/>
        <path fill="#C1CEDC" d="M35.44 57.716c-.05.575-.414 1.177-.816 1.348-.254.11-.468 0-.575-.24-.067-.133-.08-.306-.067-.507.04-.575.402-1.176.816-1.336a.484.484 0 0 1 .133-.027c.334-.066.552.255.508.762"/>
        <path fill="#FFF" d="M35.011 57.462c-.045.576-.414 1.176-.815 1.336a.71.71 0 0 1-.148.026c-.066-.133-.08-.307-.066-.507.04-.574.402-1.175.816-1.336a.484.484 0 0 1 .133-.027.976.976 0 0 1 .08.508"/>
        <path fill="#C1CEDC" d="M35.44 50.597c-.05.574-.414 1.177-.816 1.348-.254.108-.468 0-.575-.24-.067-.134-.08-.307-.067-.507.04-.575.402-1.176.816-1.336a.484.484 0 0 1 .133-.027c.334-.066.552.255.508.762"/>
        <path fill="#FFF" d="M35.011 50.343c-.045.575-.414 1.175-.815 1.335a.71.71 0 0 1-.148.026c-.066-.132-.08-.307-.066-.507.04-.574.402-1.175.816-1.334a.45.45 0 0 1 .133-.027.972.972 0 0 1 .08.507"/>
        <path fill="#C1CEDC" d="M35.44 43.477c-.05.575-.414 1.177-.816 1.349-.254.108-.468 0-.575-.24-.067-.134-.08-.307-.067-.508.04-.574.402-1.175.816-1.335a.452.452 0 0 1 .133-.027c.334-.067.552.254.508.76"/>
        <path fill="#FFF" d="M35.011 43.224c-.045.575-.414 1.175-.815 1.335a.71.71 0 0 1-.148.026c-.066-.133-.08-.307-.066-.507.04-.574.402-1.175.816-1.335a.452.452 0 0 1 .133-.027.976.976 0 0 1 .08.508"/>
        <path fill="#C1CEDC" d="M35.44 36.358c-.05.574-.414 1.177-.816 1.348-.254.108-.468 0-.575-.24-.067-.134-.08-.307-.067-.507.04-.574.402-1.175.816-1.336a.484.484 0 0 1 .133-.027c.334-.066.552.255.508.762"/>
        <path fill="#FFF" d="M35.011 36.104c-.045.575-.414 1.175-.815 1.336-.054.013-.107.025-.148.025-.066-.132-.08-.307-.066-.507.04-.574.402-1.175.816-1.334a.45.45 0 0 1 .133-.027.972.972 0 0 1 .08.507"/>
        <path fill="#A2B3AF" d="M35.44 29.238c-.05.576-.414 1.178-.816 1.349-.254.109-.468 0-.575-.24-.067-.133-.08-.307-.067-.508.04-.574.402-1.175.816-1.335a.484.484 0 0 1 .133-.027c.334-.066.552.254.508.761"/>
        <path fill="#FFF" d="M35.011 28.985c-.045.575-.414 1.175-.815 1.336a.71.71 0 0 1-.148.025c-.066-.132-.08-.307-.066-.507.04-.574.402-1.175.816-1.335a.484.484 0 0 1 .133-.027.976.976 0 0 1 .08.508"/>
        <path fill="#A2B3AF" d="M35.44 22.12c-.05.573-.414 1.176-.816 1.348-.254.108-.468 0-.575-.24-.067-.135-.08-.308-.067-.508.04-.574.402-1.175.816-1.336a.484.484 0 0 1 .133-.026c.334-.067.552.254.508.761"/>
        <path fill="#FFF" d="M35.011 21.865c-.045.576-.414 1.176-.815 1.336-.054.013-.107.026-.148.026-.066-.133-.08-.307-.066-.507.04-.574.402-1.175.816-1.335a.45.45 0 0 1 .133-.027.972.972 0 0 1 .08.507"/>
        <path fill="#A2B3AF" d="M35.44 15c-.05.575-.414 1.177-.816 1.348-.254.109-.468 0-.575-.24-.067-.133-.08-.306-.067-.507.04-.575.402-1.176.816-1.336a.484.484 0 0 1 .133-.027c.334-.066.552.255.508.762"/>
        <path fill="#FFF" d="M35.011 14.746c-.045.575-.414 1.175-.815 1.336a.71.71 0 0 1-.148.026c-.066-.133-.08-.307-.066-.507.04-.575.402-1.176.816-1.336a.484.484 0 0 1 .133-.027.976.976 0 0 1 .08.508M35.011 7.627c-.045.575-.414 1.175-.815 1.335a.71.71 0 0 1-.148.026c-.066-.133-.08-.307-.066-.507.04-.574.402-1.175.816-1.335a.45.45 0 0 1 .133-.026.972.972 0 0 1 .08.507M35.011.507c-.045.575-.414 1.175-.815 1.336-.054.013-.107.026-.148.026-.066-.133-.08-.307-.066-.508.04-.574.402-1.174.816-1.334A.45.45 0 0 1 34.93 0a.972.972 0 0 1 .08.507"/>
        <g>
            <path fill="#C1CEDC" d="M50 15.612c0-2.01-2.136-3.264-3.842-2.257l-22.367 13.2C22.064 27.573 21 29.453 21 31.487v34.001c0 1.93 2.05 3.137 3.69 2.173l22.145-13.013c1.959-1.15 3.165-3.28 3.165-5.584V15.612z"/>
            <path fill="#F4FAFC" d="M51 49.064V15.613c0-2.01-2.136-3.265-3.841-2.258l-22.368 13.2C23.064 27.572 22 29.451 22 31.486v34c0 1.931 2.05 3.138 3.691 2.174l22.143-13.013c1.96-1.151 3.166-3.28 3.166-5.584"/>
            <path fill="#DF1A1E" d="M25.954 28.173A3.9 3.9 0 0 0 24 31.55v33.486a.965.965 0 0 0 1.447.834l21.982-12.612A5.135 5.135 0 0 0 50 48.82V15.963a.965.965 0 0 0-1.448-.832L25.954 28.173z"/>
            <path fill="#FFF" d="M28 40.791v6.196a1.152 1.152 0 0 0 1.735.994l15.696-9.219c.353-.207.569-.585.569-.993v-5.8a1.152 1.152 0 0 0-1.716-1.004l-15.696 8.822A1.152 1.152 0 0 0 28 40.791z"/>
        </g>
    </g>
</svg>
