<svg xmlns="http://www.w3.org/2000/svg" width="31" height="39" viewBox="0 0 31 39">
    <g fill="none" fill-rule="evenodd" stroke="#0A294C" stroke-linecap="round" stroke-linejoin="round" stroke-width="1.617">
        <path d="M9.788 29.937v5.993L8.08 37.66l-3.109-3.696 1.255-1.832a.527.527 0 0 0 .141-.362.524.524 0 0 0-.141-.36L4.967 29.57l1.259-1.836a.528.528 0 0 0 .141-.362m-.068.1a.526.526 0 0 0 .14-.36.528.528 0 0 0-.14-.362l-1.26-1.837 1.26-1.837a.528.528 0 0 0 .14-.362l-.072-1.404a.512.512 0 0 0-.33-.486c-2.643-.933-4.418-3.546-4.418-6.503 0-3.778 2.897-6.852 6.459-6.852 3.561 0 6.458 3.074 6.458 6.852 0 2.917-1.781 5.577-4.433 6.62a.512.512 0 0 0-.314.48l-.001 8.69"/>
        <path d="M9.154 12.86c0 1.192-.723 2.157-1.614 2.157-.892 0-1.615-.965-1.615-2.156 0-1.19.723-2.157 1.615-2.157.891 0 1.614.967 1.614 2.157z"/>
        <path d="M7.001 11.451V9.168C7.001 4.676 10.391 1 14.536 1s7.536 3.676 7.536 8.168v5.85M28.381 37.66H16.84c-.675 0-1.227-.587-1.227-1.307V19.56c0-.719.552-1.308 1.227-1.308H28.38c.675 0 1.226.59 1.226 1.308v16.793c0 .72-.551 1.308-1.226 1.308z"/>
        <path d="M27.454 26.916l-1.224-1.253a.113.113 0 0 0-.03-.03l-2.961-3.03a.126.126 0 0 0-.18 0l-2.963 3.03a.11.11 0 0 0-.029.028l-1.225 1.253m1.194-.827v4.961c0 .08.06.143.132.143h5.96c.073 0 .133-.064.133-.143v-4.961"/>
    </g>
</svg>
