<svg xmlns="http://www.w3.org/2000/svg" width="34" height="33" viewBox="0 0 34 33">
    <defs>
        <path id="a" d="M0 .349h33.96v34.714H0z"/>
    </defs>
    <g fill="none" fill-rule="evenodd">
        <path stroke="#0A294C" stroke-linecap="round" stroke-linejoin="round" stroke-width="1.617" d="M7.081 15.719h10.005M7.081 18.682h8.575M20.897 11.32a7.229 7.229 0 0 0-4.114-1.28c-4.042 0-7.32 3.316-7.32 7.407s3.278 7.408 7.32 7.408a7.232 7.232 0 0 0 4.114-1.28"/>
        <path stroke="#0A294C" stroke-linecap="round" stroke-linejoin="round" stroke-width="1.617" d="M26.863 27.945c5.885-6.11 5.885-16.018 0-22.127-5.886-6.11-15.428-6.11-21.314 0-5.885 6.11-5.885 16.016 0 22.127a14.964 14.964 0 0 0 5.1 3.481"/>
        <path stroke="#0A294C" stroke-linecap="round" stroke-linejoin="round" stroke-width="1.617" d="M32.353 25.461l-5.745 2.73-.714-6.47"/>
    </g>
</svg>
