<svg xmlns="http://www.w3.org/2000/svg" width="17" height="15" viewBox="0 0 17 15">
    <g fill="#DF1A1E" fill-rule="nonzero" stroke="#DF1A1E" stroke-width=".2">
        <path stroke-linejoin="round" d="M5.856 6.247h3.682a.282.282 0 0 1 0 .564H5.856a.282.282 0 0 1 0-.564zM5.856 8.218h5.098a.282.282 0 1 1 0 .564H5.856a.282.282 0 0 1 0-.564zM5.856 10.19h5.098a.282.282 0 1 1 0 .563H5.856a.282.282 0 0 1 0-.564z"/>
        <path d="M14.62 1.024H2.45C1.671 1.024 1 1.62 1 2.398v5.065c0 .777.635 1.41 1.415 1.41.32 0 .637-.11.85-.289v5.076c0 .155.161.316.318.316h9.905c.157 0 .248-.16.248-.316V8.584c.283.179.53.289.849.289.78 0 1.415-.633 1.415-1.41V2.398c0-.777-.6-1.374-1.38-1.374zm-1.45 6.442v5.947H3.83V4.65c0-.155.163-.246.32-.246h8.77c.157 0 .25.09.25.246v2.817zm2.264-.003a.849.849 0 0 1-1.698.003V4.403h.566v-.564H2.698v.564h.566v3.063a.849.849 0 1 1-1.698-.003V2.398c0-.467.417-.811.885-.811H14.62a.79.79 0 0 1 .814.81v5.066z"/>
    </g>
</svg>
