<svg xmlns="http://www.w3.org/2000/svg" width="15" height="15" viewBox="0 0 15 15">
    <g fill="#DF1A1E" fill-rule="nonzero" stroke="#DF1A1E" stroke-width=".3">
        <path d="M14.402 7.388c-.14 0-.254.123-.254.274v5.79H1.166V7.668c0-.15-.114-.273-.255-.273-.14 0-.254.122-.254.273v6.03c0 .151.146.302.286.302h13.491c.14 0 .223-.15.223-.302V7.662c0-.15-.114-.274-.255-.274z"/>
        <path d="M13.926 2.5H1.45a.791.791 0 0 0-.794.788v1.915c0 .733.532 1.452 1.191 1.636l4.911 1.367c.288.08.658.12 1.027.12.386 0 .777-.043 1.078-.13L13.5 6.849c.657-.19 1.157-.914 1.157-1.646V3.288c0-.453-.31-.787-.731-.787zm-.558 3.82L8.725 7.667c-.498.144-1.336.149-1.834.01L1.974 6.308c-.43-.12-.808-.627-.808-1.106V3.288c0-.151.145-.24.285-.24h12.475c.14 0 .222.089.222.24v1.915c0 .48-.349.992-.78 1.117z"/>
        <path d="M9.672.62H5.69c-.387 0-.73.334-.73.786v1.095c0 .15.104.273.234.273.129 0 .234-.122.234-.273V1.406c0-.15.133-.239.262-.239h3.982c.129 0 .204.089.204.239v1.095c0 .15.105.273.234.273.13 0 .234-.122.234-.273V1.406c0-.452-.285-.786-.672-.786zM9.089 10.149H6.543c-.14 0-.254.122-.254.273 0 .152.114.274.254.274H9.09c.14 0 .254-.122.254-.274 0-.15-.114-.273-.254-.273z"/>
    </g>
</svg>
