<svg xmlns="http://www.w3.org/2000/svg" width="17" height="17" viewBox="0 0 17 17">
    <g fill="none" fill-rule="evenodd">
        <path fill="#DF1A1E" stroke="#F1F6FB" stroke-width=".69" d="M12.901 13.746a.789.789 0 0 1 .002-1.107 5.888 5.888 0 0 0 1.704-4.157 5.927 5.927 0 0 0-5.921-5.92 5.927 5.927 0 0 0-5.921 5.92 5.927 5.927 0 0 0 7.861 5.597.788.788 0 1 1 .518 1.491 7.488 7.488 0 0 1-2.458.412c-4.136 0-7.5-3.364-7.5-7.5 0-4.135 3.364-7.5 7.5-7.5 4.135 0 7.5 3.365 7.5 7.5a7.448 7.448 0 0 1-1.642 4.684c-.363.43-.65.688-.857.775-.209.088-.47.022-.786-.195z"/>
        <path stroke="#DF1A1E" stroke-linecap="round" stroke-linejoin="round" stroke-width=".92" d="M8.69 5.073L8.687 9.69M8.686 11.996v-.577"/>
    </g>
</svg>
