<svg xmlns="http://www.w3.org/2000/svg" width="15" height="15" viewBox="0 0 15 15">
    <path fill="none" fill-rule="evenodd" stroke="#DF1A1E" stroke-width=".855" d="M1.006 11.26a.63.63 0 0 0 .193.55l1.83 1.818c.083.092.19.17.324.234.133.065.263.106.392.124a1.857 1.857 0 0 0 .262.014c.174 0 .456-.03.846-.09.39-.06.867-.206 1.431-.44.564-.234 1.204-.586 1.92-1.054.715-.468 1.477-1.11 2.284-1.928a15.095 15.095 0 0 0 1.597-1.817c.422-.579.761-1.114 1.018-1.605a8.63 8.63 0 0 0 .578-1.336c.129-.399.216-.743.262-1.032.046-.29.064-.517.055-.682-.01-.165-.014-.257-.014-.276a1.339 1.339 0 0 0-.124-.392 1.03 1.03 0 0 0-.234-.324l-1.83-1.831a.606.606 0 0 0-.44-.193.513.513 0 0 0-.317.103.958.958 0 0 0-.234.255L9.332 4.154a.67.67 0 0 0-.068.482.858.858 0 0 0 .233.44l.675.675a.23.23 0 0 1 .048.09c.014.04.02.075.02.103-.036.193-.119.413-.247.66-.11.221-.28.49-.51.807-.229.316-.554.681-.976 1.094-.413.423-.78.75-1.101.985-.321.234-.59.406-.805.516-.216.11-.381.177-.496.2l-.172.034a.329.329 0 0 1-.09-.02.228.228 0 0 1-.089-.049l-.784-.798a.843.843 0 0 0-.578-.22.72.72 0 0 0-.372.082h-.014l-2.656 1.57c-.192.12-.307.27-.344.455z"/>
</svg>
