<svg xmlns="http://www.w3.org/2000/svg" width="17" height="17" viewBox="0 0 17 17">
    <path fill="none" fill-rule="nonzero" stroke="#df1a1e" stroke-width=".5" d="M12.953 1a3.05 3.05 0 0 0-3.047 3.047c0 .633.195 1.222.527 1.71L5.36 8.984a2.568 2.568 0 0 0-1.782-.72A2.581 2.581 0 0 0 1 10.845a2.581 2.581 0 0 0 2.578 2.578 2.58 2.58 0 0 0 2.254-1.33l4.312 1.724-.003.075c0 1.163.946 2.109 2.109 2.109s2.11-.946 2.11-2.11c0-1.163-.947-2.109-2.11-2.109-.972 0-1.791.663-2.034 1.56L6.02 11.661a2.56 2.56 0 0 0-.35-2.32l5.059-3.219c.556.596 1.346.97 2.223.97A3.05 3.05 0 0 0 16 4.048 3.05 3.05 0 0 0 12.953 1zm-.703 11.25c.904 0 1.64.736 1.64 1.64 0 .905-.736 1.641-1.64 1.641-.904 0-1.64-.736-1.64-1.64 0-.905.736-1.641 1.64-1.641zm-8.672.703a2.112 2.112 0 0 1-2.11-2.11c0-1.162.947-2.109 2.11-2.109 1.163 0 2.11.947 2.11 2.11 0 1.163-.947 2.11-2.11 2.11zm9.375-6.328a2.581 2.581 0 0 1-2.578-2.578 2.581 2.581 0 0 1 2.578-2.578 2.581 2.581 0 0 1 2.578 2.578 2.581 2.581 0 0 1-2.578 2.578z"/>
</svg>
