<svg xmlns="http://www.w3.org/2000/svg" width="12" height="15" viewBox="0 0 12 15">
    <g fill="#000" fill-rule="nonzero">
        <path d="M8.15 2.62H1.203C.549 2.62.02 3.15.02 3.804v9.99c0 .654.53 1.185 1.182 1.185H8.15c.652 0 1.181-.531 1.181-1.185v-9.99A1.188 1.188 0 0 0 8.151 2.62zm.353 11.171c0 .197-.16.356-.356.356H1.198a.356.356 0 0 1-.355-.356V3.804c0-.197.16-.356.355-.356h6.95c.195 0 .355.16.355.356v9.987z"/>
        <path d="M10.808 0h-6.95c-.651 0-1.181.53-1.181 1.184 0 .23.184.414.413.414.23 0 .414-.184.414-.414 0-.196.159-.356.355-.356h6.949c.196 0 .355.16.355.356v9.99c0 .197-.16.357-.355.357a.412.412 0 0 0-.414.414c0 .23.184.414.414.414.652 0 1.181-.53 1.181-1.184V1.184C11.99.531 11.46 0 10.808 0z"/>
    </g>
</svg>
