<svg xmlns="http://www.w3.org/2000/svg" width="26" height="26" viewBox="0 0 26 26">
    <g fill="none" fill-rule="evenodd" stroke="#ED2725" stroke-linecap="round" stroke-linejoin="round">
        <path d="M3.722 25C2.22 25 1 23.755 1 22.22V9.964c0-1.536 1.219-2.78 2.722-2.78h18.26c1.502 0 2.722 1.244 2.722 2.78v9.097c0 3.28-2.604 5.939-5.816 5.939H7.773M14.495 2.633c0 .902-.716 1.633-1.599 1.633s-1.599-.73-1.599-1.633c0-.902.716-1.633 1.599-1.633s1.599.73 1.599 1.633z"/>
        <path d="M10.935 14.361c0 .711-.564 1.287-1.26 1.287-.695 0-1.259-.576-1.259-1.287 0-.71.564-1.286 1.26-1.286.695 0 1.26.576 1.26 1.286zM17.287 14.361c0 .711-.564 1.287-1.26 1.287-.695 0-1.259-.576-1.259-1.287 0-.71.564-1.286 1.26-1.286.695 0 1.26.576 1.26 1.286zM12.852 7.184V4.266M10.102 19.383h5.5"/>
    </g>
</svg>
