<svg xmlns="http://www.w3.org/2000/svg" width="19" height="18" viewBox="0 0 19 18">
    <path fill="white" fill-rule="evenodd" d="M17.377 17.491l-3.794-3.64a.77.77 0 0 1 .002-1.126c1.187-1.134 1.842-2.636 1.842-4.229 0-3.322-2.87-6.024-6.4-6.024-3.53 0-6.4 2.702-6.4 6.024s2.87 6.024 6.4 6.024a6.77 6.77 0 0 0 2.097-.33c.445-.147.932.075 1.086.494.155.42-.08.877-.526 1.023a8.553 8.553 0 0 1-2.657.419c-4.47 0-8.107-3.423-8.107-7.63S4.557.866 9.027.866c4.47 0 8.106 3.423 8.106 7.63a7.303 7.303 0 0 1-1.774 4.765l3.237 3.106a.77.77 0 0 1-.012 1.136.878.878 0 0 1-.597.23.881.881 0 0 1-.61-.242z"/>
</svg>
