<svg xmlns="http://www.w3.org/2000/svg" width="165" height="137" viewBox="0 0 165 137">
    <g fill="none" fill-rule="evenodd">
        <path stroke="#BAC5D1" stroke-dasharray="2.72" stroke-width=".68" d="M142.962 56.12l12.095 7.11c8.476 4.983 11.308 15.893 6.326 24.369a17.802 17.802 0 0 1-5.507 5.814l-60.092 39.86a17 17 0 0 1-18.538.167l-14.45-9.214"/>
        <path fill="#DADFE3" d="M49.624 129.398c-3.404-.783-8.327-2.404-14.77-4.865-9.663-3.691-44.988-20.172-31.859-31.588 13.13-11.416 25.259 12.233 34.548 12.233 9.29 0 14.086 16.005 14.086 18.78l-2.005 5.44z" opacity=".175"/>
        <path fill="#DAE6F3" d="M46.562 88.678l-4.487-2.604c8.339-4.812 15.094-16.475 15.066-26.051-.013-4.798-1.72-8.166-4.469-9.718l8.503 4.934c2.747 1.554 4.454 4.92 4.468 9.72.026 9.575-6.729 21.24-15.068 26.05l-4.013-2.33 4.014 2.329c-4.2 2.424-8.006 2.65-10.753 1.054l-8.5-4.937c2.745 1.596 6.552 1.37 10.75-1.052l4.489 2.605z"/>
        <path fill="#F1F6FB" d="M50.575 91.008c8.34-4.81 15.094-16.474 15.068-26.049-.014-4.8-1.721-8.166-4.468-9.72-2.75-1.552-6.527-1.32-10.699 1.086-8.339 4.812-15.084 16.481-15.056 26.067.027 9.575 6.816 13.428 15.155 8.616m26.542-33.185c-.05 29.278-24.431 67.38-26.955 71.416-.11.201-.198.329-.22.38-.606-.26-26.002-10.875-26-41.467.05-17.031 11.895-37.55 26.494-46.01 14.898-8.505 26.732-1.428 26.681 15.68z"/>
        <path fill="#DAE6F3" d="M45.287 39.098l-3.262-1.895c7.405-4.228 14.054-4.605 18.86-1.812l8.502 4.936c-4.808-2.793-11.456-2.416-18.862 1.813l-5.238-3.042 5.238 3.041c-14.599 8.46-26.443 28.98-26.493 46.013-.002 24.138 16.134 36.165 23.241 40.29l-8.5-4.937c-7.107-4.125-23.244-16.152-23.244-40.29.053-17.033 11.895-37.552 26.494-46.012l3.264 1.895z"/>
        <g>
            <path fill="#DAE6F3" d="M111.802 52.135c-1.052.172-1.804-.577-1.802-1.979l.024-26.91c.001-1.788 1.226-3.963 2.733-4.858L143.115.383c.812-.481 1.543-.494 2.044-.123l4.994 2.899-4.297 3.09.03 22.673c.002 1.789-1.22 3.962-2.728 4.854l-27.836 16.468.28 4.144-3.8-2.253z"/>
            <path fill="#DAE6F3" d="M127.947 57.964V45.811l-5.125-3.016v12.152z"/>
            <path fill="#F1F6FB" d="M137.559 43.138l-9.613 14.826.012-9.13-10.094 5.988c-1.508.895-2.73.17-2.73-1.617V26.307c0-1.79 1.222-3.964 2.73-4.86l30.397-18.07c1.507-.896 2.73-.172 2.73 1.616V31.93c0 1.789-1.222 3.964-2.73 4.858l-10.702 6.35z"/>
            <path fill="#0A294C" d="M140.605 28.354c-1.058-.059-1.851-1.404-1.771-3.004.08-1.6 1.19-2.85 2.248-2.792 1.058.058 1.663 1.403 1.583 3.003-.08 1.6-1.002 2.85-2.06 2.793zM134.2 31.576c-1.059-.059-1.852-1.403-1.773-3.004.08-1.6 1.003-2.85 2.061-2.792 1.058.058 1.852 1.403 1.772 3.003-.08 1.601-1.002 2.851-2.06 2.793zM127.792 34.798c-1.058-.058-1.85-1.403-1.77-3.004.079-1.6 1.24-2.85 2.299-2.792 1.057.058 1.61 1.403 1.53 3.004-.079 1.6-1.001 2.85-2.059 2.792z"/>
        </g>
    </g>
</svg>
