<svg xmlns="http://www.w3.org/2000/svg" width="20" height="20" viewBox="0 0 20 20">
    <g fill="#DF1A1E" fill-rule="evenodd">
        <path d="M18.608 1.382a4.734 4.734 0 0 0-6.685 0L8.58 4.725a.727.727 0 1 0 1.028 1.028l3.343-3.343a3.248 3.248 0 0 1 2.314-.954c.877 0 1.699.34 2.313.955.616.615.954 1.437.954 2.314s-.338 1.7-.954 2.314l-4.37 4.37a3.275 3.275 0 0 1-4.628 0 .727.727 0 0 0-1.029 1.03 4.713 4.713 0 0 0 3.342 1.382c1.21 0 2.422-.462 3.344-1.383l4.371-4.37a4.696 4.696 0 0 0 1.38-3.343c0-1.266-.49-2.454-1.38-3.343"/>
        <path d="M9.553 14.98l-2.74 2.712a3.163 3.163 0 0 1-2.24.914 3.17 3.17 0 0 1-2.241-.914 3.12 3.12 0 0 1 0-4.437L6.316 9.31a3.17 3.17 0 0 1 2.241-.915c.85 0 1.646.326 2.241.915.275.272.72.272.996 0a.692.692 0 0 0 0-.986 4.616 4.616 0 0 0-6.474 0l-3.984 3.944A4.476 4.476 0 0 0 0 15.473c0 1.213.475 2.351 1.336 3.204A4.571 4.571 0 0 0 4.574 20a4.57 4.57 0 0 0 3.236-1.323l2.739-2.71a.692.692 0 0 0 0-.986.709.709 0 0 0-.996 0"/>
    </g>
</svg>
